<mxfile host="Electron" modified="2024-09-12T05:10:49.863Z" agent="Mozilla/5.0 (Windows NT 10.0; Win64; x64) AppleWebKit/537.36 (KHTML, like Gecko) draw.io/24.6.1 Chrome/124.0.6367.207 Electron/30.0.6 Safari/537.36" etag="wRmx-QLsQsstgXulPtWG" version="24.6.1" type="device">
  <diagram name="第 1 页" id="NbJ7uVP1SbW0fN08NpJ6">
    <mxGraphModel dx="1863" dy="614" grid="1" gridSize="10" guides="1" tooltips="1" connect="1" arrows="1" fold="1" page="1" pageScale="1" pageWidth="827" pageHeight="1169" math="0" shadow="0">
      <root>
        <mxCell id="0" />
        <mxCell id="1" parent="0" />
        <mxCell id="NJu38FcJAUvmYDNz97jk-3" value="" style="edgeStyle=orthogonalEdgeStyle;rounded=0;orthogonalLoop=1;jettySize=auto;html=1;" parent="1" source="NJu38FcJAUvmYDNz97jk-1" target="NJu38FcJAUvmYDNz97jk-2" edge="1">
          <mxGeometry relative="1" as="geometry" />
        </mxCell>
        <mxCell id="NJu38FcJAUvmYDNz97jk-1" value="安装插件&lt;div&gt;即增强类&lt;/div&gt;" style="ellipse;whiteSpace=wrap;html=1;" parent="1" vertex="1">
          <mxGeometry x="250" y="50" width="120" height="80" as="geometry" />
        </mxCell>
        <mxCell id="NJu38FcJAUvmYDNz97jk-2" value="" style="whiteSpace=wrap;html=1;" parent="1" vertex="1">
          <mxGeometry x="250" y="220" width="120" height="60" as="geometry" />
        </mxCell>
        <mxCell id="NJu38FcJAUvmYDNz97jk-4" value="SkyWalkingAgent#installClassTransformer" style="text;html=1;align=center;verticalAlign=middle;resizable=0;points=[];autosize=1;strokeColor=none;fillColor=none;" parent="1" vertex="1">
          <mxGeometry x="310" y="160" width="250" height="30" as="geometry" />
        </mxCell>
        <mxCell id="NJu38FcJAUvmYDNz97jk-7" value="" style="edgeStyle=orthogonalEdgeStyle;rounded=0;orthogonalLoop=1;jettySize=auto;html=1;" parent="1" source="NJu38FcJAUvmYDNz97jk-5" target="NJu38FcJAUvmYDNz97jk-6" edge="1">
          <mxGeometry relative="1" as="geometry" />
        </mxCell>
        <mxCell id="NJu38FcJAUvmYDNz97jk-5" value="增强逻辑实现&lt;div&gt;org.apache.skywalking.apm.agent.SkyWalkingAgent.Transformer#transform&lt;br&gt;&lt;/div&gt;" style="ellipse;whiteSpace=wrap;html=1;" parent="1" vertex="1">
          <mxGeometry x="-130" y="70" width="120" height="80" as="geometry" />
        </mxCell>
        <mxCell id="NJu38FcJAUvmYDNz97jk-6" value="学习bytebuddy的模板" style="whiteSpace=wrap;html=1;" parent="1" vertex="1">
          <mxGeometry x="-130" y="240" width="120" height="60" as="geometry" />
        </mxCell>
        <mxCell id="tHOtNYga1mIFCRSGUbM4-5" value="" style="edgeStyle=orthogonalEdgeStyle;rounded=0;orthogonalLoop=1;jettySize=auto;html=1;fillColor=#dae8fc;strokeColor=#6c8ebf;" edge="1" parent="1" source="tHOtNYga1mIFCRSGUbM4-1" target="tHOtNYga1mIFCRSGUbM4-4">
          <mxGeometry relative="1" as="geometry" />
        </mxCell>
        <mxCell id="tHOtNYga1mIFCRSGUbM4-1" value="成功加载所有的插件&lt;div&gt;pluginFinder = new PluginFinder(new PluginBootstrap().loadPlugins());&lt;br&gt;&lt;/div&gt;" style="rounded=1;whiteSpace=wrap;html=1;fillColor=#dae8fc;strokeColor=#6c8ebf;" vertex="1" parent="1">
          <mxGeometry x="-730" y="90" width="340" height="60" as="geometry" />
        </mxCell>
        <mxCell id="tHOtNYga1mIFCRSGUbM4-7" value="" style="edgeStyle=orthogonalEdgeStyle;rounded=0;orthogonalLoop=1;jettySize=auto;html=1;" edge="1" parent="1" source="tHOtNYga1mIFCRSGUbM4-4" target="tHOtNYga1mIFCRSGUbM4-6">
          <mxGeometry relative="1" as="geometry" />
        </mxCell>
        <mxCell id="tHOtNYga1mIFCRSGUbM4-4" value="&lt;div&gt;使用插件&lt;/div&gt;&lt;div&gt;利用插件将目标类进行增强&lt;/div&gt;&lt;div&gt;installClassTransformer(instrumentation, pluginFinder);&lt;br&gt;&lt;/div&gt;" style="rounded=1;whiteSpace=wrap;html=1;fillColor=#dae8fc;strokeColor=#6c8ebf;" vertex="1" parent="1">
          <mxGeometry x="-730" y="230" width="340" height="60" as="geometry" />
        </mxCell>
        <mxCell id="tHOtNYga1mIFCRSGUbM4-6" value="&lt;div&gt;进行注入&lt;/div&gt;&lt;div&gt;&lt;span style=&quot;background-color: initial;&quot;&gt;BootstrapInstrumentBoost.inject&lt;/span&gt;&lt;/div&gt;" style="rounded=1;whiteSpace=wrap;html=1;fillColor=#dae8fc;strokeColor=#6c8ebf;" vertex="1" parent="1">
          <mxGeometry x="-730" y="370" width="340" height="60" as="geometry" />
        </mxCell>
      </root>
    </mxGraphModel>
  </diagram>
</mxfile>
